<svg xmlns="http://www.w3.org/2000/svg" xmlns:xlink="http://www.w3.org/1999/xlink" version="1.1" viewBox="18.5 396.5 1522 11"><defs></defs><g><path fill="none" stroke="#e2e8f0" paint-order="fill stroke markers" d=" M 20 403.71982545411345 L 21 403.799647522224 L 22 403.8785809120808 L 23 403.9565866458361 L 24 404.0336262037252 L 25 404.10966154308744 L 26 404.1846551171524 L 27 404.25856989358016 L 28 404.3313693727487 L 29 404.4030176057775 L 30 404.47347921227896 L 31 404.54271939782996 L 32 404.6107039711533 L 33 404.67739936100185 L 34 404.742772632736 L 35 404.80679150458695 L 36 404.8694243635981 L 37 404.9306402812353 L 38 404.99040902865977 L 39 405.04870109165535 L 40 405.10548768520266 L 41 405.1607407676934 L 42 405.21443305477766 L 43 405.2665380328368 L 44 405.31702997207645 L 45 405.3658839392316 L 46 405.4130758098792 L 47 405.4585822803508 L 48 405.5023808792401 L 49 405.5444499784994 L 50 405.58476880411985 L 51 405.62331744638954 L 52 405.66007686972534 L 53 405.6950289220726 L 54 405.72815634386893 L 55 405.75944277656674 L 56 405.78887277071175 L 57 405.81643179357155 L 58 405.84210623631213 L 59 405.8658834207181 L 60 405.8877516054533 L 61 405.90769999185835 L 62 405.9257187292838 L 63 405.94179891995384 L 64 405.9559326233603 L 65 405.96811286018385 L 66 405.9783336157402 L 67 405.9865898429504 L 68 405.992877464833 L 69 405.9971933765172 L 70 405.9995354467764 L 71 405.9999025190803 L 72 405.99829441216605 L 73 405.99471192012777 L 74 405.9891568120247 L 75 405.98163183100706 L 76 405.972140692962 L 77 405.9606880846784 L 78 405.94727966153255 L 79 405.93192204469545 L 80 405.91462281786335 L 81 405.8953905235128 L 82 405.8742346586822 L 83 405.85116567028234 L 84 405.8261949499375 L 85 405.79933482836003 L 86 405.7705985692617 L 87 405.7400003628038 L 88 405.70755531859 L 89 405.67327945820483 L 90 405.63718970730275 L 91 405.5993038872494 L 92 405.55964070632194 L 93 405.5182197504702 L 94 405.47506147364567 L 95 405.4301871877004 L 96 405.3836190518638 L 97 405.3353800617997 L 98 405.2854940382514 L 99 405.23398561527836 L 100 405.1808802280922 L 101 405.12620410049624 L 102 405.06998423193625 L 103 405.0122483841677 L 104 404.9530250675471 L 105 404.8923435269533 L 106 404.8302337273459 L 107 404.7667263389688 L 108 404.7018527222046 L 109 404.635644912089 L 110 404.5681356024913 L 111 404.49935812997035 L 112 404.4293464573124 L 113 404.3581351567602 L 114 404.285759392941 L 115 404.2122549055018 L 116 404.13765799146137 L 117 404.06200548728583 L 118 403.9853347506992 L 119 403.90768364223555 L 120 403.82909050654325 L 121 403.7495941534502 L 122 403.6692338387991 L 123 403.588049245063 L 124 403.5060804617495 L 125 403.42336796560426 L 126 403.33995260062363 L 127 403.25587555788525 L 128 403.17117835520776 L 129 403.08590281664914 L 130 403.0000910518535 L 131 402.913785435257 L 132 402.82702858516353 L 133 402.73986334269887 L 134 402.6523327506559 L 135 402.5644800322395 L 136 402.4763485697228 L 137 402.38798188302485 L 138 402.2994236082197 L 139 402.21071747598916 L 140 402.12190729002793 L 141 402.0330369054132 L 142 401.9441502069487 L 143 401.85529108749387 L 144 401.76650342628966 L 145 401.6778310672904 L 146 401.58931779751333 L 147 401.5010073254164 L 148 401.41294325931466 L 149 401.32516908584614 L 150 401.23772814849804 L 151 401.1506636262032 L 152 401.0640185120181 L 153 400.9778355918927 L 154 400.8921574235423 L 155 400.8070263154324 L 156 400.7224843058863 L 157 400.63857314232655 L 158 400.5553342606596 L 159 400.4728087648144 L 160 400.3910374064451 L 161 400.31006056480777 L 162 400.2299182268206 L 163 400.1506499673181 L 164 400.0722949295089 L 165 399.9948918056466 L 166 399.9184788179231 L 167 399.84309369959414 L 168 399.7687736763469 L 169 399.69555544791695 L 170 399.6234751699663 L 171 399.55256843622914 L 172 399.48287026093544 L 173 399.41441506152086 L 174 399.347236641631 L 175 399.281368174429 L 176 399.2168421862145 L 177 399.1536905403616 L 178 399.091944421585 L 179 399.0316343205405 L 180 398.9727900187683 L 181 398.91544057398704 L 182 398.85961430574486 L 183 398.80533878143467 L 184 398.75264080268164 L 185 398.70154639210807 L 186 398.65208078048323 L 187 398.6042683942645 L 188 398.55813284353513 L 189 398.51369691034563 L 190 398.47098253746367 L 191 398.4300108175387 L 192 398.3908019826861 L 193 398.3533753944968 L 194 398.31774953447604 L 195 398.283941994917 L 196 398.2519694702139 L 197 398.2218477486182 L 198 398.1935917044419 L 199 398.167215290713 L 200 398.14273153228487 L 201 398.1201525194049 L 202 398.09948940174405 L 203 398.08075238289115 L 204 398.06395071531415 L 205 398.04909269579156 L 206 398.0361856613149 L 207 398.02523598546617 L 208 398.0162490752701 L 209 398.00922936852436 L 210 398.00418033160827 L 211 398.00110445777074 L 212 398.0000032658993 L 213 398.00087729977 L 214 398.00372612777903 L 215 398.00854834315555 L 216 398.01534156465664 L 217 398.02410243774307 L 218 398.03482663623583 L 219 398.0475088644523 L 220 398.0621428598215 L 221 398.07872139597646 L 222 398.09723628632264 L 223 398.1176783880805 L 224 398.1400376068005 L 225 398.16430290134747 L 226 398.190462289353 L 227 398.2185028531324 L 228 398.2484107460636 L 229 398.2801711994244 L 230 398.31376852968583 L 231 398.34918614625644 L 232 398.3864065596749 L 233 398.4254113902466 L 234 398.46618137711937 L 235 398.50869638779494 L 236 398.5529354280703 L 237 398.5988766524048 L 238 398.6464973747077 L 239 398.69577407954057 L 240 398.7466824337297 L 241 398.79919729838156 L 242 398.8532927412969 L 243 398.90894204977604 L 244 398.9661177438099 L 245 399.02479158964974 L 246 399.0849346137493 L 247 399.1465171170718 L 248 399.20950868975615 L 249 399.27387822613287 L 250 399.3395939400847 L 251 399.4066233807427 L 252 399.47493344851074 L 253 399.54449041141004 L 254 399.6152599217368 L 255 399.6872070330228 L 256 399.76029621729236 L 257 399.8344913826066 L 258 399.9097558908854 L 259 399.9860525759999 L 260 400.06334376212516 L 261 400.14159128234496 L 262 400.2207564974987 L 263 400.3008003152617 L 264 400.3816832094494 L 265 400.4633652395355 L 266 400.5458060703749 L 267 400.6289649921216 L 268 400.7128009403313 L 269 400.7972725162395 L 270 400.8823380072043 L 271 400.9679554073045 L 272 401.05408243808245 L 273 401.1406765694213 L 274 401.2276950405469 L 275 401.31509488114307 L 276 401.4028329325708 L 277 401.49086586918025 L 278 401.57915021970535 L 279 401.66764238873003 L 280 401.756298678216 L 281 401.8450753090814 L 282 401.93392844281857 L 283 402.0228142031425 L 284 402.111688697657 L 285 402.2005080395287 L 286 402.2892283691593 L 287 402.37780587584325 L 288 402.466196819402 L 289 402.5543575517831 L 290 402.6422445386141 L 291 402.72981438069974 L 292 402.8170238354532 L 293 402.90382983824935 L 294 402.99018952369033 L 295 403.07606024677284 L 296 403.1613996039466 L 297 403.24616545405354 L 298 403.330315939137 L 299 403.41380950511206 L 300 403.49660492228486 L 301 403.5786613057122 L 302 403.6599381353907 L 303 403.7403952762661 L 304 403.81999299805204 L 305 403.89869199484906 L 306 403.97645340455443 L 307 404.0532388280522 L 308 404.12901034817514 L 309 404.20373054842844 L 310 404.2773625314662 L 311 404.3498699373117 L 312 404.4212169613121 L 313 404.4913683718189 L 314 404.56028952758595 L 315 404.62794639487515 L 316 404.6943055642628 L 317 404.75933426713715 L 318 404.8230003918801 L 319 404.8852724997238 L 320 404.94611984027557 L 321 405.00551236670253 L 322 405.0634207505689 L 323 405.1198163963188 L 324 405.1746714553966 L 325 405.2279588399991 L 326 405.27965223645117 L 327 405.32972611820037 L 328 405.37815575842126 L 329 405.42491724222634 L 330 405.4699874784752 L 331 405.5133442111769 L 332 405.55496603048033 L 333 405.5948323832465 L 334 405.63292358319774 L 335 405.66922082063905 L 336 405.7037061717463 L 337 405.7363626074174 L 338 405.767174001681 L 339 405.7961251396598 L 340 405.8232017250841 L 341 405.8483903873507 L 342 405.87167868812594 L 343 405.8930551274877 L 344 405.9125091496039 L 345 405.9300311479455 L 346 405.94561247002986 L 347 405.95924542169354 L 348 405.97092327089183 L 349 405.98064025102286 L 350 405.9883915637755 L 351 405.9941733814984 L 352 405.99798284909053 L 353 405.99981808541065 L 354 405.9996781842065 L 355 405.9975632145624 L 356 405.9934742208646 L 357 405.98741322228636 L 358 405.9793832117901 L 359 405.96938815464995 L 360 405.95743298649353 L 361 405.9435236108646 L 362 405.9276668963079 L 363 405.9098706729776 L 364 405.89014372877045 L 365 405.8684958049865 L 366 405.8449375915184 L 367 405.81948072157314 L 368 405.79213776592724 L 369 405.76292222671907 L 370 405.73184853078186 L 371 405.698932022519 L 372 405.66418895632745 L 373 405.62763648857094 L 374 405.589292669108 L 375 405.5491764323788 L 376 405.5073075880555 L 377 405.46370681125967 L 378 405.4183956323531 L 379 405.37139642630586 L 380 405.3227324016473 L 381 405.2724275890055 L 382 405.220506829241 L 383 405.1669957611801 L 384 405.11192080895415 L 385 405.0553091689511 L 386 404.99718879638607 L 387 404.93758839149643 L 388 404.8765373853697 L 389 404.81406592541026 L 390 404.75020486045224 L 391 404.68498572552625 L 392 404.6184407262871 L 393 404.5506027231105 L 394 404.48150521486633 L 395 404.4111823223768 L 396 404.33966877156706 L 397 404.2669998763175 L 398 404.1932115210257 L 399 404.1183401428861 L 400 404.0424227138971 L 401 403.9654967226045 L 402 403.88760015558876 L 403 403.8087714787074 L 404 403.72904961810013 L 405 403.64847394096705 L 406 403.5670842361284 L 407 403.4849206943771 L 408 403.40202388863196 L 409 403.3184347539025 L 410 403.23419456707524 L 411 403.14934492653043 L 412 403.0639277316008 L 413 402.97798516188146 L 414 402.891559656401 L 415 402.80469389266506 L 416 402.71743076558187 L 417 402.62981336628025 L 418 402.54188496083134 L 419 402.4536889688829 L 420 402.365268942219 L 421 402.27666854325344 L 422 402.1879315234692 L 423 402.0991017018134 L 424 402.0102229430596 L 425 401.92133913614657 L 426 401.832494172506 L 427 401.7437319243886 L 428 401.6550962231995 L 429 401.5666308378541 L 430 401.4783794531646 L 431 401.3903856482684 L 432 401.3026928751081 L 433 401.2153444369747 L 434 401.12838346712437 L 435 401.04185290747876 L 436 400.9557954874199 L 437 400.8702537026904 L 438 400.78526979440846 L 439 400.7008857282093 L 440 400.61714317352187 L 441 400.5340834829923 L 442 400.4517476720638 L 443 400.37017639872295 L 444 400.2894099434223 L 445 400.2094881891898 L 446 400.13045060193434 L 447 400.052336210957 L 448 399.9751835896782 L 449 399.89903083658993 L 450 399.8239155564425 L 451 399.74987484167497 L 452 399.6769452540986 L 453 399.6051628068425 L 454 399.53456294657 L 455 399.4651805359749 L 456 399.3970498365661 L 457 399.3302044917488 L 458 399.2646775102115 L 459 399.20050124962586 L 460 399.13770740066803 L 461 399.07632697137024 L 462 399.0163902718081 L 463 398.9579268991339 L 464 398.9009657229608 L 465 398.8455348711071 L 466 398.7916617157066 L 467 398.7393728596918 L 468 398.6886941236574 L 469 398.63965053310983 L 470 398.59226630610954 L 471 398.5465648413118 L 472 398.50256870641255 L 473 398.460299627004 L 474 398.4197784758467 L 475 398.38102526256216 L 476 398.3440591237521 L 477 398.30889831354875 L 478 398.2755601946006 L 479 398.24406122949875 L 480 398.21441697264754 L 481 398.18664206258387 L 482 398.16075021474813 L 483 398.13675421471197 L 484 398.1146659118642 L 485 398.0944962135599 L 486 398.07625507973404 L 487 398.05995151798317 L 488 398.0455935791176 L 489 398.0331883531858 L 490 398.0227419659731 L 491 398.01425957597695 L 492 398.0077453718596 L 493 398.00320257037953 L 494 398.0006334148032 L 495 398.0000391737972 L 496 398.00142014080177 L 497 398.004775633886 L 498 398.0101039960845 L 499 398.0174025962155 L 500 398.0266678301804 L 501 398.0378951227432 L 502 398.05107892979015 L 503 398.06621274106715 L 504 398.08328908339473 L 505 398.1022995243582 L 506 398.12323467647184 L 507 398.14608420181435 L 508 398.17083681713393 L 509 398.19748029941974 L 510 398.22600149193806 L 511 398.256386310729 L 512 398.28861975156127 L 513 398.3226858973413 L 514 398.3585679259734 L 515 398.39624811866634 L 516 398.4357078686833 L 517 398.47692769053 L 518 398.5198872295764 L 519 398.5645652721084 L 520 398.610939755803 L 521 398.65898778062297 L 522 398.70868562012515 L 523 398.7600087331765 L 524 398.81293177607284 L 525 398.86742861505365 L 526 398.9234723392071 L 527 398.98103527375895 L 528 399.04008899373855 L 529 399.100604338015 L 530 399.1625514236975 L 531 399.2258996608915 L 532 399.2906177678043 L 533 399.356673786192 L 534 399.42403509714114 L 535 399.49266843717555 L 536 399.56253991468265 L 537 399.633615026649 L 538 399.70585867569827 L 539 399.77923518742244 L 540 399.8537083279983 L 541 399.92924132207963 L 542 400.00579687095745 L 543 400.08333717097827 L 544 400.1618239322115 L 545 400.24121839735784 L 546 400.3214813608874 L 547 400.40257318839986 L 548 400.4844538361962 L 549 400.56708287105266 L 550 400.6504194901867 L 551 400.734422541406 L 552 400.81905054342917 L 553 400.9042617063702 L 554 400.9900139523741 L 555 401.0762649363953 L 556 401.1629720671081 L 557 401.25009252793836 L 558 401.33758329820677 L 559 401.42540117437255 L 560 401.513502791368 L 561 401.60184464401203 L 562 401.6903831084938 L 563 401.7790744639139 L 564 401.86787491387463 L 565 401.95674060810643 L 566 402.04562766412175 L 567 402.13449218888456 L 568 402.2232903004847 L 569 402.31197814980743 L 570 402.4005119421863 L 571 402.4888479590291 L 572 402.57694257940665 L 573 402.6647523015929 L 574 402.7522337645466 L 575 402.839343769323 L 576 402.92603930040616 L 577 403.0122775469498 L 578 403.09801592391807 L 579 403.1832120931141 L 580 403.2678239840869 L 581 403.351809814906 L 582 403.4351281127939 L 583 403.51773773460525 L 584 403.59959788714383 L 585 403.68066814730656 L 586 403.76090848204456 L 587 403.84027926813167 L 588 403.9187413117311 L 589 403.996255867749 L 590 404.07278465896763 L 591 404.1482898949464 L 592 404.22273429068355 L 593 404.29608108502725 L 594 404.3682940588289 L 595 404.4393375528282 L 596 404.50917648526195 L 597 404.57777636918775 L 598 404.6451033295137 L 599 404.71112411972643 L 600 404.7758061383082 L 601 404.83911744483595 L 602 404.90102677575345 L 603 404.9615035598098 L 604 405.0205179331554 L 605 405.0780407540891 L 606 405.1340436174486 L 607 405.18849886863694 L 608 405.24137961727865 L 609 405.2926597504985 L 610 405.34231394581593 L 611 405.39031768364976 L 612 405.43664725942597 L 613 405.4812797952832 L 614 405.52419325137004 L 615 405.5653664367283 L 616 405.6047790197576 L 617 405.64241153825486 L 618 405.67824540902507 L 619 405.7122629370578 L 620 405.7444473242651 L 621 405.77478267777644 L 622 405.80325401778674 L 623 405.8298472849537 L 624 405.8545493473401 L 625 405.87734800689856 L 626 405.8982320054951 L 627 405.9171910304684 L 628 405.9342157197223 L 629 405.9492976663488 L 630 405.9624294227795 L 631 405.97360450446325 L 632 405.98281739306833 L 633 405.9900635392073 L 634 405.9953393646837 L 635 405.99864226425876 L 636 405.9999706069382 L 637 405.99932373677717 L 638 405.99670197320467 L 639 405.99210661086545 L 640 405.98553991898086 L 641 405.97700514022836 L 642 405.9665064891399 L 643 405.95404915002126 L 644 405.93963927439177 L 645 405.9232839779464 L 646 405.90499133704253 L 647 405.88477038471126 L 648 405.8626311061971 L 649 405.83858443402727 L 650 405.8126422426129 L 651 405.78481734238557 L 652 405.7551234734712 L 653 405.72357529890536 L 654 405.6901883973925 L 655 405.6549792556128 L 656 405.61796526008123 L 657 405.579164688562 L 658 405.53859670104265 L 659 405.4962813302729 L 660 405.4522394718721 L 661 405.4064928740112 L 662 405.359064126673 L 663 405.3099766504974 L 664 405.25925468521575 L 665 405.20692327768137 L 666 405.15300826950124 L 667 405.0975362842751 L 668 405.0405347144486 L 669 404.9820317077867 L 670 404.9220561534742 L 671 404.86063766785 L 672 404.79780657978233 L 673 404.7335939156921 L 674 404.668031384232 L 675 404.6011513606285 L 676 404.5329868706945 L 677 404.4635715745214 L 678 404.3929397498571 L 679 404.32112627517967 L 680 404.248166612474 L 681 404.1740967897205 L 682 404.09895338310423 L 683 404.0227734989532 L 684 403.9455947554152 L 685 403.8674552638816 L 686 403.78839361016765 L 687 403.70844883545874 L 688 403.6276604170312 L 689 403.5460682487587 L 690 403.46371262141173 L 691 403.3806342027624 L 692 403.29687401750203 L 693 403.2124734269828 L 694 403.1274741087936 L 695 403.04191803617897 L 696 402.9558474573127 L 697 402.8693048744352 L 698 402.78233302286577 L 699 402.69497484989955 L 700 402.6072734935997 L 701 402.51927226149564 L 702 402.4310146091978 L 703 402.3425441189383 L 704 402.2539044780503 L 705 402.1651394573947 L 706 402.0762928897456 L 707 401.9874086481459 L 708 401.8985306242418 L 709 401.80970270660936 L 710 401.7209687590818 L 711 401.63237259908925 L 712 401.5439579760214 L 713 401.45576854962366 L 714 401.367847868438 L 715 401.28023934829804 L 716 401.1929862508901 L 717 401.1061316623904 L 718 401.0197184721888 L 719 400.93378935170944 L 720 400.84838673333974 L 721 400.7635527894767 L 722 400.67932941170193 L 723 400.59575819009535 L 724 400.5128803926977 L 725 400.4307369451322 L 726 400.3493684103949 L 727 400.26881496882476 L 728 400.1891163982621 L 729 400.1103120544061 L 730 400.0324408513807 L 731 399.95554124251856 L 732 399.87965120137227 L 733 399.8048082029632 L 734 399.7310492052759 L 735 399.6584106310077 L 736 399.5869283495834 L 737 399.5166376594424 L 738 399.4475732706082 L 739 399.3797692875483 L 740 399.3132591923333 L 741 399.2480758281029 L 742 399.18425138284834 L 743 399.121817373517 L 744 399.0608046304497 L 745 399.0012432821562 L 746 398.9431627404377 L 747 398.8865916858628 L 748 398.8315580536052 L 749 398.77808901964875 L 750 398.72621098736823 L 751 398.67594957449063 L 752 398.6273296004454 L 753 398.5803750741083 L 754 398.5351091819454 L 755 398.49155427656393 L 756 398.449731865674 L 757 398.409662601468 L 758 398.3713662704228 L 759 398.3348617835285 L 760 398.30016716695036 L 761 398.26729955312726 L 762 398.23627517231176 L 763 398.2071093445552 L 764 398.1798164721429 L 765 398.1544100324818 L 766 398.1309025714456 L 767 398.10930569717925 L 768 398.08963007436705 L 769 398.071885418966 L 770 398.05608049340844 L 771 398.0422231022746 L 772 398.030320088439 L 773 398.02037732969126 L 774 398.01239973583364 L 775 398.00639124625656 L 776 398.00235482799326 L 777 398.00029247425465 L 778 398.0002052034452 L 779 398.0020930586598 L 780 398.00595510766254 L 781 398.0117894433473 L 782 398.01959318467925 L 783 398.0293624781175 L 784 398.0410924995181 L 785 398.0547774565163 L 786 398.0704105913868 L 787 398.0879841843806 L 788 398.1074895575374 L 789 398.12891707897046 L 790 398.1522561676232 L 791 398.177495298494 L 792 398.2046220083275 L 793 398.2336229017688 L 794 398.2644836579784 L 795 398.2971890377039 L 796 398.331722890805 L 797 398.36806816422904 L 798 398.4062069104313 L 799 398.4461202962382 L 800 398.48778861214674 L 801 398.53119128205765 L 802 398.5763068734358 L 803 398.6231131078934 L 804 398.671586872192 L 805 398.7217042296552 L 806 398.7734404319891 L 807 398.8267699315033 L 808 398.88166639372616 L 809 398.93810271040917 L 810 398.9960510129133 L 811 399.0554826859704 L 812 399.1163683818139 L 813 399.17867803467084 L 814 399.2423808756085 L 815 399.30744544772836 L 816 399.37383962169974 L 817 399.4415306116255 L 818 399.510484991232 L 819 399.5806687103749 L 820 399.6520471118537 L 821 399.72458494852566 L 822 399.79824640071104 L 823 399.8729950938809 L 824 399.94879411661935 L 825 400.0256060388507 L 826 400.1033929303224 L 827 400.18211637933547 L 828 400.2617375117124 L 829 400.3422170099936 L 830 400.42351513285234 L 831 400.5055917347196 L 832 400.58840628560813 L 833 400.6719178911263 L 834 400.75608531267227 L 835 400.8408669877976 L 836 400.92622105073133 L 837 401.0121053530535 L 838 401.0984774845083 L 839 401.18529479394647 L 840 401.2725144103869 L 841 401.3600932641866 L 842 401.4479881083086 L 843 401.5361555396778 L 844 401.6245520206136 L 845 401.7131339003291 L 846 401.80185743648656 L 847 401.8906788167968 L 848 401.979554180655 L 849 402.0684396407986 L 850 402.15729130497954 L 851 402.2460652976384 L 852 402.33471778157053 L 853 402.42320497957303 L 854 402.5114831960625 L 855 402.5995088386518 L 856 402.6872384396767 L 857 402.7746286776603 L 858 402.8616363987054 L 859 402.9482186378043 L 860 403.03433264005525 L 861 403.11993588177506 L 862 403.20498609149746 L 863 403.28944127084736 L 864 403.3732597152796 L 865 403.45640003467304 L 866 403.53882117376946 L 867 403.6204824324467 L 868 403.7013434858168 L 869 403.7813644041385 L 870 403.8605056725353 L 871 403.9387282105074 L 872 404.01599339123084 L 873 404.0922630606308 L 874 404.167499556223 L 875 404.24166572571147 L 876 404.3147249453344 L 877 404.3866411379496 L 878 404.45737879084925 L 879 404.52690297329667 L 880 404.5951793537751 L 881 404.6621742169409 L 882 404.7278544802725 L 883 404.7921877104068 L 884 404.85514213915457 L 885 404.91668667918856 L 886 404.97679093939394 L 887 405.035425239876 L 888 405.0925606266162 L 889 405.1481688857698 L 890 405.20222255759813 L 891 405.2546949500284 L 892 405.3055601518344 L 893 405.3547930454317 L 894 405.4023693192805 L 895 405.4482654798917 L 896 405.49245886342715 L 897 405.5349276468919 L 898 405.57565085891025 L 899 405.6146083900815 L 900 405.6517810029105 L 901 405.68715034130673 L 902 405.720698939649 L 903 405.75241023141007 L 904 405.78226855733715 L 905 405.81025917318476 L 906 405.8363682569953 L 907 405.86058291592474 L 908 405.8828911926088 L 909 405.9032820710679 L 910 405.9217454821469 L 911 405.93827230848706 L 912 405.9528543890285 L 913 405.96548452304023 L 914 405.9761564736756 L 915 405.9848649710524 L 916 405.99160571485515 L 917 405.9963753764584 L 918 405.99917160057066 L 919 405.99999300639735 L 920 405.9988391883226 L 921 405.9957107161097 L 922 405.9906091346197 L 923 405.9835369630483 L 924 405.9744976936822 L 925 405.96349579017453 L 926 405.9505366853404 L 927 405.93562677847444 L 928 405.9187734321906 L 929 405.89998496878655 L 930 405.879270666134 L 931 405.8566407530972 L 932 405.8321064044821 L 933 405.8056797355177 L 934 405.7773737958739 L 935 405.74720256321734 L 936 405.71518093630897 L 937 405.6813247276471 L 938 405.6456506556592 L 939 405.608176336446 L 940 405.56892027508246 L 941 405.52790185648024 L 942 405.48514133581494 L 943 405.44065982852413 L 944 405.3944792998803 L 945 405.34662255414423 L 946 405.29711322330434 L 947 405.2459757554067 L 948 405.1932354024827 L 949 405.13891820807936 L 950 405.0830509943986 L 951 405.02566134905277 L 952 404.96677761144105 L 953 404.9064288587559 L 954 404.84464489162394 L 955 404.7814562193908 L 956 404.7168940450549 L 957 404.6509902498595 L 958 404.5837773775493 L 959 404.51528861830036 L 960 404.4455577923303 L 961 404.3746193331979 L 962 404.3025082707995 L 963 404.2292602140706 L 964 404.1549113334028 L 965 404.07949834278173 L 966 404.0030584816579 L 967 403.9256294965574 L 968 403.8472496224427 L 969 403.76795756383154 L 970 403.68779247568483 L 971 403.6067939440713 L 972 403.52500196661975 L 973 403.44245693276804 L 974 403.35919960381835 L 975 403.2752710928091 L 976 403.190712844213 L 977 403.10556661347147 L 978 403.0198744463755 L 979 402.93367865830334 L 980 402.84702181332455 L 981 402.75994670318175 L 982 402.6724963261599 L 983 402.58471386585313 L 984 402.4966426698407 L 985 402.4083262282815 L 986 402.3198081524384 L 987 402.2311321531425 L 988 402.14234201920874 L 989 402.0534815958124 L 990 401.9645947628384 L 991 401.8757254132126 L 992 401.7869174312276 L 993 401.6982146708723 L 994 401.60966093417636 L 995 401.5212999495805 L 996 401.4331753503433 L 997 401.34533065299445 L 998 401.2578092358462 L 999 401.17065431757294 L 1000 401.0839089358694 L 1001 400.99761592619814 L 1002 400.9118179006376 L 1003 400.82655722683944 L 1004 400.7418760071076 L 1005 400.6578160576073 L 1006 400.57441888771666 L 1007 400.49172567952843 L 1008 400.40977726751424 L 1009 400.3286141183605 L 1010 400.24827631098526 L 1011 400.16880351674723 L 1012 400.09023497985567 L 1013 400.0126094979913 L 1014 399.93596540314815 L 1015 399.8603405427043 L 1016 399.7857722607329 L 1017 399.71229737956173 L 1018 399.6399521815895 L 1019 399.5687723913697 L 1020 399.4987931579695 L 1021 399.43004903761295 L 1022 399.36257397661683 L 1023 399.2964012946277 L 1024 399.2315636681684 L 1025 399.16809311450237 L 1026 399.106020975823 L 1027 399.0453779037769 L 1028 398.9861938443278 L 1029 398.9284980229689 L 1030 398.87231893029144 L 1031 398.8176843079155 L 1032 398.76462113479135 L 1033 398.71315561387667 L 1034 398.6633131591976 L 1035 398.6151183832993 L 1036 398.5685950850916 L 1037 398.52376623809727 L 1038 398.48065397910756 L 1039 398.4392795972508 L 1040 398.3996635234797 L 1041 398.3618253204824 L 1042 398.32578367302233 L 1043 398.2915563787115 L 1044 398.25916033922186 L 1045 398.22861155193925 L 1046 398.1999251020638 L 1047 398.1731151551606 L 1048 398.1481949501648 L 1049 398.125176792844 L 1050 398.10407204972176 L 1051 398.0848911424646 L 1052 398.06764354273554 L 1053 398.05233776751743 L 1054 398.03898137490665 L 1055 398.0275809603813 L 1056 398.0181421535439 L 1057 398.01066961534195 L 1058 398.0051670357659 L 1059 398.00163713202716 L 1060 398.00008164721623 L 1061 398.00050134944235 L 1062 398.0028960314535 L 1063 398.0072645107394 L 1064 398.01360463011514 L 1065 398.0219132587864 L 1066 398.03218629389545 L 1067 398.0444186625474 L 1068 398.0586043243149 L 1069 398.07473627422115 L 1070 398.09280654619903 L 1071 398.11280621702457 L 1072 398.13472541072355 L 1073 398.1585533034483 L 1074 398.18427812882237 L 1075 398.2118871837511 L 1076 398.2413668346944 L 1077 398.27270252439894 L 1078 398.30587877908687 L 1079 398.3408792160968 L 1080 398.3776865519735 L 1081 398.4162826110028 L 1082 398.4566483341869 L 1083 398.4987637886556 L 1084 398.5426081775094 L 1085 398.5881598500893 L 1086 398.63539631266787 L 1087 398.6842942395568 L 1088 398.73482948462544 L 1089 398.7869770932242 L 1090 398.84071131450725 L 1091 398.89600561414875 L 1092 398.9528326874453 L 1093 399.0111644727995 L 1094 399.0709721655769 L 1095 399.13222623232974 L 1096 399.194896425381 L 1097 399.2589517977607 L 1098 399.3243607184879 L 1099 399.3910908881903 L 1100 399.4591093550537 L 1101 399.52838253109405 L 1102 399.59887620874326 L 1103 399.6705555777412 L 1104 399.74338524232525 L 1105 399.817329238709 L 1106 399.8923510528414 L 1107 399.96841363843754 L 1108 400.0454794352724 L 1109 400.12351038772863 L 1110 400.20246796358816 L 1111 400.28231317306006 L 1112 400.36300658803395 L 1113 400.44450836154954 L 1114 400.5267782474738 L 1115 400.6097756203745 L 1116 400.6934594955811 L 1117 400.7777885494239 L 1118 400.86272113963935 L 1119 400.9482153259336 L 1120 401.03422889069276 L 1121 401.12071935983033 L 1122 401.2076440237612 L 1123 401.2949599584918 L 1124 401.3826240468165 L 1125 401.4705929996089 L 1126 401.5588233771986 L 1127 401.6472716108217 L 1128 401.73589402413563 L 1129 401.8246468547866 L 1130 401.9134862760198 L 1131 402.00236841832157 L 1132 402.09124939108216 L 1133 402.1800853042694 L 1134 402.2688322901019 L 1135 402.35744652471107 L 1136 402.4458842497818 L 1137 402.53410179416073 L 1138 402.62205559542116 L 1139 402.70970222137447 L 1140 402.79699839151743 L 1141 402.8839009984042 L 1142 402.9703671289332 L 1143 403.05635408553786 L 1144 403.141819407271 L 1145 403.2267208907722 L 1146 403.31101661110836 L 1147 403.39466494247625 L 1148 403.47762457875785 L 1149 403.5598545539174 L 1150 403.64131426223076 L 1151 403.721963478337 L 1152 403.80176237710157 L 1153 403.8806715532826 L 1154 403.9586520409892 L 1155 404.03566533292326 L 1156 404.1116733993946 L 1157 404.18663870710014 L 1158 404.26052423765833 L 1159 404.3332935058889 L 1160 404.4049105778294 L 1161 404.47534008848015 L 1162 404.544547259267 L 1163 404.6124979152158 L 1164 404.6791585018279 L 1165 404.7444961016498 L 1166 404.80847845052784 L 1167 404.8710739535406 L 1168 404.9322517006006 L 1169 404.991981481718 L 1170 405.0502338019184 L 1171 405.10697989580774 L 1172 405.1621917417767 L 1173 405.2158420758382 L 1174 405.2679044050905 L 1175 405.3183530207992 L 1176 405.36716301109294 L 1177 405.41431027326473 L 1178 405.45977152567406 L 1179 405.5035243192436 L 1180 405.5455470485446 L 1181 405.5858189624661 L 1182 405.62432017446145 L 1183 405.66103167236895 L 1184 405.6959353277998 L 1185 405.72901390509037 L 1186 405.7602510698129 L 1187 405.78963139684186 L 1188 405.8171403779708 L 1189 405.84276442907674 L 1190 405.866490896828 L 1191 405.8883080649325 L 1192 405.9082051599235 L 1193 405.9261723564794 L 1194 405.94220078227573 L 1195 405.9562825223661 L 1196 405.968410623091 L 1197 405.97857909551135 L 1198 405.986782918366 L 1199 405.99301804055096 L 1200 405.99728138312037 L 1201 405.99957084080654 L 1202 405.99988528305954 L 1203 405.99822455460566 L 1204 405.994589475524 L 1205 405.9889818408414 L 1206 405.98140441964625 L 1207 405.9718609537209 L 1208 405.9603561556942 L 1209 405.9468957067141 L 1210 405.9314862536422 L 1211 405.914135405772 L 1212 405.8948517310707 L 1213 405.87364475194875 L 1214 405.85052494055753 L 1215 405.825503713618 L 1216 405.79859342678316 L 1217 405.7698073685366 L 1218 405.73915975363076 L 1219 405.70666571606756 L 1220 405.67234130162484 L 1221 405.6362034599333 L 1222 405.59827003610627 L 1223 405.55855976192777 L 1224 405.5170922466029 L 1225 405.47388796707423 L 1226 405.4289682579104 L 1227 405.3823553007711 L 1228 405.33407211345326 L 1229 405.28414253852503 L 1230 405.23259123155196 L 1231 405.1794436489219 L 1232 405.1247260352747 L 1233 405.0684654105421 L 1234 405.0106895566054 L 1235 404.95142700357644 L 1236 404.8907070157091 L 1237 404.82855957694863 L 1238 404.7650153761253 L 1239 404.7001057918001 L 1240 404.6338628767696 L 1241 404.5663193422384 L 1242 404.4975085416656 L 1243 404.4274644542951 L 1244 404.35622166837635 L 1245 404.2838153640842 L 1246 404.2102812961469 L 1247 404.13565577619005 L 1248 404.0599756548058 L 1249 403.9832783033556 L 1250 403.90560159551603 L 1251 403.82698388857676 L 1252 403.7474640044991 L 1253 403.66708121074555 L 1254 403.58587520088946 L 1255 403.5038860750138 L 1256 403.42115431990965 L 1257 403.33772078908345 L 1258 403.2536266825833 L 1259 403.168913526654 L 1260 403.0836231532315 L 1261 402.99779767928527 L 1262 402.91147948602134 L 1263 402.82471119795383 L 1264 402.73753566185684 L 1265 402.6499959256062 L 1266 402.5621352169224 L 1267 402.4739969220242 L 1268 402.3856245642043 L 1269 402.29706178233744 L 1270 402.20835230933096 L 1271 402.11953995052926 L 1272 402.0306685620825 L 1273 401.94178202929004 L 1274 401.8529242449296 L 1275 401.7641390875829 L 1276 401.6754703999677 L 1277 401.5869619672884 L 1278 401.4986574956143 L 1279 401.41060059029735 L 1280 401.3228347344397 L 1281 401.23540326742113 L 1282 401.14834936349797 L 1283 401.0617160104833 L 1284 400.97554598851934 L 1285 400.8898818489522 L 1286 400.8047658933198 L 1287 400.7202401524632 L 1288 400.63634636577126 L 1289 400.5531259605695 L 1290 400.4706200316632 L 1291 400.38886932104424 L 1292 400.3079141977727 L 1293 400.2277946380419 L 1294 400.14855020543854 L 1295 400.07022003140526 L 1296 399.9928427959177 L 1297 399.9164567083839 L 1298 399.8410994887763 L 1299 399.76680834900526 L 1300 399.69361997454365 L 1301 399.6215705063113 L 1302 399.5506955228284 L 1303 399.4810300226464 L 1304 399.4126084070657 L 1305 399.3454644631481 L 1306 399.27963134703225 L 1307 399.2151415675611 L 1308 399.1520269702287 L 1309 399.09031872145493 L 1310 399.030047293195 L 1311 398.9712424478924 L 1312 398.91393322378184 L 1313 398.85814792055015 L 1314 398.80391408536155 L 1315 398.75125849925473 L 1316 398.7002071639182 L 1317 398.65078528885056 L 1318 398.6030172789116 L 1319 398.5569267222713 L 1320 398.5125363787618 L 1321 398.4698681686383 L 1322 398.42894316175466 L 1323 398.3897815671593 L 1324 398.35240272311523 L 1325 398.3168250875515 L 1326 398.2830662289477 L 1327 398.2511428176592 L 1328 398.22107061768463 L 1329 398.19286447888214 L 1330 398.16653832963596 L 1331 398.14210516997855 L 1332 398.11957706517126 L 1333 398.0989651397463 L 1334 398.0802795720135 L 1335 398.0635295890339 L 1336 398.0487234620637 L 1337 398.0358685024696 L 1338 398.0249710581186 L 1339 398.01603651024317 L 1340 398.0090692707842 L 1341 398.0040727802122 L 1342 398.0010495058284 L 1343 398.0000009405463 L 1344 398.00092760215466 L 1345 398.0038290330616 L 1346 398.0087038005208 L 1347 398.01554949733855 L 1348 398.02436274306314 L 1349 398.0351391856535 L 1350 398.0478735036286 L 1351 398.062559408695 L 1352 398.0791896488525 L 1353 398.09775601197475 L 1354 398.1182493298646 L 1355 398.1406594827817 L 1356 398.1649754044391 L 1357 398.1911850874684 L 1358 398.21927558934897 L 1359 398.2492330387989 L 1360 398.28104264262464 L 1361 398.3146886930264 L 1362 398.35015457535445 L 1363 398.3874227763134 L 1364 398.4264748926108 L 1365 398.4672916400446 L 1366 398.5098528630258 L 1367 398.55413754453133 L 1368 398.60012381648266 L 1369 398.6477889705443 L 1370 398.6971094693371 L 1371 398.74806095806144 L 1372 398.80061827652383 L 1373 398.85475547156096 L 1374 398.91044580985573 L 1375 398.96766179113814 L 1376 399.02637516176543 L 1377 399.08655692867364 L 1378 399.1481773736947 L 1379 399.21120606823143 L 1380 399.2756118882835 L 1381 399.3413630298164 L 1382 399.4084270244669 L 1383 399.4767707555758 L 1384 399.54636047454125 L 1385 399.6171618174841 L 1386 399.6891398222171 L 1387 399.7622589455092 L 1388 399.83648308063727 L 1389 399.9117755752158 L 1390 399.9880992492961 L 1391 400.0654164137259 L 1392 400.1436888887608 L 1393 400.2228780229171 L 1394 400.302944712059 L 1395 400.3838494187077 L 1396 400.46555219156596 L 1397 400.5480126852456 L 1398 400.631190180191 L 1399 400.7150436027864 L 1400 400.79953154563816 L 1401 400.88461228802237 L 1402 400.9702438164866 L 1403 401.05638384559643 L 1404 401.14298983881645 L 1405 401.2300190295149 L 1406 401.3174284420823 L 1407 401.4051749131529 L 1408 401.4932151129192 L 1409 401.58150556652856 L 1410 401.6700026755511 L 1411 401.7586627395092 L 1412 401.847441977457 L 1413 401.9362965495996 L 1414 402.02518257894167 L 1415 402.11405617295407 L 1416 402.2028734452482 L 1417 402.2915905372477 L 1418 402.3801636398459 L 1419 402.4685490150388 L 1420 402.55670301752383 L 1421 402.6445821162516 L 1422 402.73214291592234 L 1423 402.8193421784143 L 1424 402.9061368441352 L 1425 402.9924840532857 L 1426 403.0783411670234 L 1427 403.16366578851824 L 1428 403.2484157838888 L 1429 403.3325493030077 L 1430 403.41602480016786 L 1431 403.49880105459783 L 1432 403.5808371908172 L 1433 403.66209269882086 L 1434 403.7425274540832 L 1435 403.82210173737207 L 1436 403.9007762543622 L 1437 403.978512155039 L 1438 404.0552710528832 L 1439 404.131015043826 L 1440 404.2057067249668 L 1441 404.27930921304255 L 1442 404.3517861626413 L 1443 404.42310178414976 L 1444 404.4932208614263 L 1445 404.562108769191 L 1446 404.62973149012396 L 1447 404.69605563166306 L 1448 404.7610484424937 L 1449 404.82467782872135 L 1450 404.88691236972 L 1451 404.9477213336477 L 1452 405.00707469262215 L 1453 405.0649431375489 L 1454 405.121298092594 L 1455 405.17611172929526 L 1456 405.22935698030403 L 1457 405.2810075527513 L 1458 405.3310379412311 L 1459 405.3794234403955 L 1460 405.42614015715407 L 1461 405.47116502247263 L 1462 405.5144758027647 L 1463 405.5560511108709 L 1464 405.5958704166197 L 1465 405.6339140569656 L 1466 405.6701632456988 L 1467 405.7046000827221 L 1468 405.7372075628898 L 1469 405.76796958440525 L 1470 405.7968709567718 L 1471 405.8238974082941 L 1472 405.8490355931256 L 1473 405.8722730978588 L 1474 405.8935984476548 L 1475 405.9130011119102 L 1476 405.93047150945654 L 1477 405.9460010132921 L 1478 405.9595819548418 L 1479 405.9712076277436 L 1480 405.98087229116084 L 1481 405.9885711726166 L 1482 405.99430047035065 L 1483 405.9980573551965 L 1484 405.99983997197876 L 1485 405.99964744042904 L 1486 405.9974798556208 L 1487 405.99333828792214 L 1488 405.9872247824676 L 1489 405.97914235814795 L 1490 405.9690950061196 L 1491 405.9570876878337 L 1492 405.9431263325861 L 1493 405.9272178345895 L 1494 405.909370049569 L 1495 405.889591790883 L 1496 405.86789282517077 L 1497 405.84428386753007 L 1498 405.81877657622556 L 1499 405.79138354693214 L 1500 405.76211830651505 L 1501 405.7309953063501 L 1502 405.69802991518765 L 1503 405.66323841156327 L 1504 405.62663797575937 L 1505 405.5882466813215 L 1506 405.54808348613335 L 1507 405.5061682230554 L 1508 405.4625215901312 L 1509 405.41716514036654 L 1510 405.37012127108653 L 1511 405.32141321287554 L 1512 405.2710650181058 L 1513 405.2191015490602 L 1514 405.1655484656551 L 1515 405.1104322127694 L 1516 405.05378000718565 L 1517 404.9956198241504 L 1518 404.93598038355975 L 1519 404.8748911357774 L 1520 404.81238224709153 L 1521 404.748484584819 L 1522 404.6832297020623 L 1523 404.6166498221289 L 1524 404.5487778226188 L 1525 404.47964721918953 L 1526 404.40929214900575 L 1527 404.3377473538823 L 1528 404.2650481631283 L 1529 404.1912304761014 L 1530 404.1163307444801 L 1531 404.0403859542642 L 1532 403.9634336075104 L 1533 403.8855117038139 L 1534 403.80665872154356 L 1535 403.72691359884124 L 1536 403.64631571439395 L 1537 403.5649048679882 L 1538 403.4827212608567 L 1539 403.39980547582667" stroke-linecap="round" stroke-linejoin="round" stroke-miterlimit="10" stroke-width="3"></path></g></svg>